<svg xmlns="http://www.w3.org/2000/svg" width="239" height="70" fill="none"><path fill="#0090E9" d="M80.992 62.624c-.784 0-1.336-.232-1.656-.696-.32-.48-.48-1.112-.48-1.896 0-.592.112-1.256.336-1.992.24-.736.544-1.504.912-2.304.368-.816.76-1.632 1.176-2.448.416-.816.816-1.6 1.2-2.352.4-.752.736-1.432 1.008-2.04-.08-.4-.176-.824-.288-1.272-.112-.448-.216-.872-.312-1.272.72-.496 1.472-.912 2.256-1.248.784-.336 1.728-.504 2.832-.504.416 0 .768.056 1.056.168.288.112.512.256.672.432.416-.176.824-.32 1.224-.432.4-.112.824-.168 1.272-.168.608 0 1.056.176 1.344.528.288.336.472.776.552 1.32.096.528.144 1.088.144 1.68 0 .912-.032 1.832-.096 2.76-.064.928-.096 1.912-.096 2.952 0 1.104.056 2.176.168 3.216.112 1.04.336 1.96.672 2.76.336.8.832 1.392 1.488 1.776-.544.336-1.072.592-1.584.768-.496.176-1.088.264-1.776.264-.784 0-1.424-.216-1.92-.648-.496-.432-.888-1.016-1.176-1.752-.272-.736-.472-1.552-.6-2.448h-4.896c-.144.496-.256.952-.336 1.368-.08.4-.12.76-.12 1.08 0 .512.064.936.192 1.272-.592.368-1.144.648-1.656.84-.512.192-1.016.288-1.512.288Zm4.44-7.368h3.72c0-.896.008-1.704.024-2.424.032-.72.064-1.408.096-2.064.048-.672.096-1.368.144-2.088h-.768a628.071 628.071 0 0 0-1.68 3.336c-.576 1.152-1.088 2.232-1.536 3.24Zm18.036 7.344c-1.792 0-3.144-.408-4.0556-1.224-.896-.832-1.344-2.144-1.344-3.936 0-.512.072-1.288.216-2.328.144-1.04.328-2.256.552-3.648.24-1.392.504-2.856.792-4.392l-1.344-1.92c.832-.496 1.608-.912 2.3276-1.248.736-.336 1.472-.504 2.208-.504.688 0 1.192.136 1.512.408.32.256.48.688.48 1.296 0 .416-.048.96-.144 1.632-.096.656-.216 1.368-.36 2.136-.128.768-.272 1.52-.432 2.256l.24.12c.576-1.136 1.272-1.992 2.088-2.568.832-.576 1.816-.864 2.952-.864.864 0 1.592.256 2.184.768.592.496 1.04 1.168 1.344 2.016.304.832.456 1.752.456 2.76 0 1.52-.296 2.856-.888 4.008-.592 1.152-1.376 2.12-2.352 2.904-.96.768-2.008 1.344-3.144 1.728-1.12.4-2.216.6-3.288.6Zm-.648-2.784c.944 0 1.784-.168 2.52-.504.736-.352 1.36-.816 1.872-1.392.528-.576.928-1.208 1.2-1.896.272-.704.408-1.408.408-2.112 0-.432-.08-.856-.24-1.272-.16-.416-.392-.76-.696-1.032-.288-.272-.624-.408-1.008-.408-.592 0-1.112.168-1.56.504-.432.336-.8.784-1.104 1.344-.288.544-.528 1.152-.72 1.824-.176.656-.32 1.312-.432 1.968-.096.64-.16 1.224-.192 1.752s-.048.936-.048 1.224Zm19.279 2.784c-1.408 0-2.624-.264-3.648-.792-1.008-.544-1.784-1.288-2.328-2.232-.544-.944-.816-2.04-.816-3.288 0-1.728.376-3.24 1.128-4.536.768-1.312 1.816-2.328 3.144-3.048 1.328-.736 2.84-1.104 4.536-1.104.272 0 .544.016.816.048.288.016.592.064.912.144.08.224.144.496.192.816.048.304.08.632.096.984.144-.048.296-.088.456-.12.176-.032.36-.048.552-.048.56 0 1.088.152 1.584.456.496.288.904.744 1.224 1.368.32.624.48 1.416.48 2.376 0 1.424-.24 2.696-.72 3.816-.464 1.104-1.096 2.04-1.896 2.808-.8.768-1.696 1.352-2.688 1.752-.976.4-1.984.6-3.024.6Zm.744-2.952c.368 0 .752-.088 1.152-.264.4-.176.792-.496 1.176-.96.384-.464.704-1.12.96-1.968-.688-.432-1.184-.96-1.488-1.584-.304-.64-.456-1.344-.456-2.112 0-.224.04-.512.12-.864.08-.352.216-.712.408-1.08.208-.368.488-.672.84-.912-1.104.224-2.008.56-2.712 1.008-.704.448-1.256.968-1.656 1.56-.384.576-.656 1.176-.816 1.8-.144.608-.216 1.192-.216 1.752 0 .64.104 1.24.312 1.8.208.544.512.984.912 1.32.4.336.888.504 1.464.504Zm13.892 2.952c-.992 0-1.768-.176-2.328-.528-.544-.336-.928-.792-1.152-1.368-.208-.592-.312-1.256-.312-1.992 0-.848.088-1.736.264-2.664.176-.944.352-1.856.528-2.736.176-.896.264-1.68.264-2.352 0-.992-.168-1.72-.504-2.184.656-.352 1.336-.632 2.04-.84.72-.224 1.296-.336 1.728-.336.656 0 1.128.136 1.416.408.304.256.456.688.456 1.296 0 .336-.048.8-.144 1.392-.096.576-.216 1.208-.36 1.896s-.296 1.384-.456 2.088c-.144.688-.264 1.312-.36 1.872-.096.56-.144 1-.144 1.32 0 .592.152 1.04.456 1.344.32.304.704.456 1.152.456.512 0 1.048-.192 1.608-.576.56-.384 1.024-.944 1.392-1.68l.24-1.32c.112-.528.232-1.088.36-1.68.144-.608.272-1.184.384-1.728.128-.56.24-1.032.336-1.416l-1.44-1.92c.688-.496 1.424-.912 2.208-1.248.784-.336 1.584-.504 2.4-.504.72 0 1.232.136 1.536.408.32.256.48.688.48 1.296 0 .336-.064.8-.192 1.392-.112.592-.256 1.256-.432 1.992-.16.72-.328 1.472-.504 2.256-.176.784-.328 1.552-.456 2.304-.112.736-.168 1.4-.168 1.992 0 .48.056.912.168 1.296.128.368.32.664.576.888-.896.784-1.848 1.176-2.856 1.176-1.024 0-1.736-.232-2.136-.696-.4-.464-.6-1.016-.6-1.656l-.24-.12c-.528.784-1.264 1.392-2.208 1.824-.944.432-1.944.648-3 .648Zm18.424 0c-1.024 0-1.752-.304-2.184-.912-.432-.608-.648-1.536-.648-2.784 0-.352.04-.848.12-1.488.08-.656.184-1.384.312-2.184.144-.8.28-1.592.408-2.376-.336.064-.664.136-.984.216-.304.08-.592.168-.864.264-.064-.24-.112-.48-.144-.72-.016-.24-.024-.416-.024-.528 0-.832.24-1.432.72-1.8.496-.384 1.088-.576 1.776-.576 0-.368-.048-.776-.144-1.224-.096-.448-.264-.944-.504-1.488.672-.496 1.344-.912 2.016-1.248.672-.336 1.416-.504 2.232-.504.704 0 1.192.136 1.464.408.272.256.408.688.408 1.296 0 .304-.032.664-.096 1.08-.064.416-.144.872-.24 1.368.352-.048.688-.104 1.008-.168.32-.08.632-.16.936-.24.064.176.104.36.12.552.032.176.048.352.048.528 0 .64-.2 1.2-.6 1.68-.384.464-.984.696-1.8.696h-.36a60.8266 60.8266 0 0 0-.6 3.144c-.176 1.072-.264 2.072-.264 3 0 .624.056 1.184.168 1.68.128.48.32.864.576 1.152-.896.784-1.848 1.176-2.856 1.176Zm21.081 0c-1.44 0-2.624-.104-3.552-.312-.928-.192-1.648-.464-2.16-.816-.512-.352-.872-.752-1.08-1.2-.192-.464-.288-.952-.288-1.464 0-.48.072-.96.216-1.44.16-.48.432-.976.816-1.488.224.464.592.912 1.104 1.344.512.432 1.088.784 1.728 1.056.656.272 1.296.408 1.92.408.832 0 1.52-.128 2.064-.384.56-.272.96-.688 1.2-1.248-2.72-.368-4.76-1.12-6.12-2.256-1.36-1.152-2.04-2.504-2.04-4.056 0-.912.184-1.712.552-2.4.384-.688.888-1.264 1.512-1.728.624-.48 1.304-.864 2.04-1.152.736-.304 1.464-.52 2.184-.648.72-.144 1.36-.216 1.92-.216 2.032 0 3.592.24 4.68.72 1.104.464 1.656 1.288 1.656 2.472 0 .688-.16 1.264-.48 1.728-.304.464-.712.816-1.224 1.056-.496.224-1.04.336-1.632.336-.704 0-1.392-.2-2.064-.6-.672-.416-1.144-.992-1.416-1.728-.56 0-1.112.192-1.656.576-.544.368-.896.88-1.056 1.536 2.128.512 3.84 1.08 5.136 1.704 1.312.624 2.264 1.328 2.856 2.112.592.784.888 1.68.888 2.688 0 1.168-.344 2.152-1.032 2.952-.688.8-1.616 1.408-2.784 1.824-1.152.416-2.448.624-3.888.624Zm14.052 0c-1.024 0-1.752-.304-2.184-.912-.432-.608-.648-1.536-.648-2.784 0-.352.04-.848.12-1.488.08-.656.184-1.384.312-2.184.144-.8.28-1.592.408-2.376-.336.064-.664.136-.984.216-.304.08-.592.168-.864.264-.064-.24-.112-.48-.144-.72-.016-.24-.024-.416-.024-.528 0-.832.24-1.432.72-1.8.496-.384 1.088-.576 1.776-.576 0-.368-.048-.776-.144-1.224-.096-.448-.264-.944-.504-1.488.672-.496 1.344-.912 2.016-1.248.672-.336 1.416-.504 2.232-.504.704 0 1.192.136 1.464.408.272.256.408.688.408 1.296 0 .304-.032.664-.096 1.08-.064.416-.144.872-.24 1.368.352-.048.688-.104 1.008-.168.32-.08.632-.16.936-.24.064.176.104.36.12.552.032.176.048.352.048.528 0 .64-.2 1.2-.6 1.68-.384.464-.984.696-1.8.696h-.36a60.8266 60.8266 0 0 0-.6 3.144c-.176 1.072-.264 2.072-.264 3 0 .624.056 1.184.168 1.68.128.48.32.864.576 1.152-.896.784-1.848 1.176-2.856 1.176Zm11.318 0c-.992 0-1.768-.176-2.328-.528-.544-.336-.928-.792-1.152-1.368-.208-.592-.312-1.256-.312-1.992 0-.848.088-1.736.264-2.664.176-.944.352-1.856.528-2.736.176-.896.264-1.68.264-2.352 0-.992-.168-1.72-.504-2.184.656-.352 1.336-.632 2.04-.84.72-.224 1.296-.336 1.728-.336.656 0 1.128.136 1.416.408.304.256.456.688.456 1.296 0 .336-.048.8-.144 1.392-.096.576-.216 1.208-.36 1.896s-.296 1.384-.456 2.088c-.144.688-.264 1.312-.36 1.872-.096.56-.144 1-.144 1.32 0 .592.152 1.04.456 1.344.32.304.704.456 1.152.456.512 0 1.048-.192 1.608-.576.56-.384 1.024-.944 1.392-1.68l.24-1.32c.112-.528.232-1.088.36-1.68.144-.608.272-1.184.384-1.728.128-.56.24-1.032.336-1.416l-1.44-1.92c.688-.496 1.424-.912 2.208-1.248.784-.336 1.584-.504 2.4-.504.72 0 1.232.136 1.536.408.32.256.48.688.48 1.296 0 .336-.064.8-.192 1.392-.112.592-.256 1.256-.432 1.992-.16.72-.328 1.472-.504 2.256-.176.784-.328 1.552-.456 2.304-.112.736-.168 1.4-.168 1.992 0 .48.056.912.168 1.296.128.368.32.664.576.888-.896.784-1.848 1.176-2.856 1.176-1.024 0-1.736-.232-2.136-.696-.4-.464-.6-1.016-.6-1.656l-.24-.12c-.528.784-1.264 1.392-2.208 1.824-.944.432-1.944.648-3 .648Zm17.176 4.44c-.656 0-1.184-.168-1.584-.504-.384-.32-.664-.752-.84-1.296-.176-.528-.264-1.112-.264-1.752 0-.4.064-1.056.192-1.968.128-.912.304-2.008.528-3.288.224-1.296.48-2.712.768-4.248l-.864.192c-.272.064-.544.136-.816.216a3.6478 3.6478 0 0 1-.144-.6c-.016-.208-.024-.368-.024-.48 0-.816.224-1.408.672-1.776.464-.384 1.008-.584 1.632-.6a7.2682 7.2682 0 0 1-.144-.816 13.893 13.893 0 0 1-.024-.816c0-.816.104-1.608.312-2.376.224-.768.552-1.456.984-2.064.432-.624.976-1.112 1.632-1.464.656-.368 1.424-.552 2.304-.552.64 0 1.176.136 1.608.408.432.256.76.592.984 1.008.224.416.336.848.336 1.296 0 .656-.24 1.256-.72 1.8-.464.528-1.168.792-2.112.792-.704 0-1.368-.192-1.992-.576l-.336.264.84 2.856c.832-.112 1.68-.328 2.544-.648.112.352.168.728.168 1.128 0 .576-.144 1.096-.432 1.56-.272.448-.704.736-1.296.864-.144.64-.304 1.408-.48 2.304-.16.88-.328 1.808-.504 2.784-.16.96-.296 1.88-.408 2.76-.096.88-.144 1.624-.144 2.232 0 .48.056.904.168 1.272.128.384.32.688.576.912-1.168.784-2.208 1.176-3.12 1.176Zm10.359 0c-.656 0-1.184-.168-1.584-.504-.384-.32-.664-.752-.84-1.296-.176-.528-.264-1.112-.264-1.752 0-.4.064-1.056.192-1.968.128-.912.304-2.008.528-3.288.224-1.296.48-2.712.768-4.248l-.864.192c-.272.064-.544.136-.816.216a3.6478 3.6478 0 0 1-.144-.6c-.016-.208-.024-.368-.024-.48 0-.816.224-1.408.672-1.776.464-.384 1.008-.584 1.632-.6a7.2682 7.2682 0 0 1-.144-.816 13.893 13.893 0 0 1-.024-.816c0-.816.104-1.608.312-2.376.224-.768.552-1.456.984-2.064.432-.624.976-1.112 1.632-1.464.656-.368 1.424-.552 2.304-.552.64 0 1.176.136 1.608.408.432.256.76.592.984 1.008.224.416.336.848.336 1.296 0 .656-.24 1.256-.72 1.8-.464.528-1.168.792-2.112.792-.704 0-1.368-.192-1.992-.576l-.336.264.84 2.856c.832-.112 1.68-.328 2.544-.648.112.352.168.728.168 1.128 0 .576-.144 1.096-.432 1.56-.272.448-.704.736-1.296.864-.144.64-.304 1.408-.48 2.304-.16.88-.328 1.808-.504 2.784-.16.96-.296 1.88-.408 2.76-.096.88-.144 1.624-.144 2.232 0 .48.056.904.168 1.272.128.384.32.688.576.912-1.168.784-2.208 1.176-3.12 1.176Z"/><path fill="#64748B" d="M88.3926 35.4102c-1.5176 0-2.9053-.3829-4.1631-1.1485-1.2441-.7656-2.2354-1.791-2.9736-3.0762-.7247-1.2988-1.087-2.7412-1.087-4.3271l.0411-13.1045c0-1.5586.3554-2.9668 1.0664-4.2246.7109-1.2715 1.6884-2.29 2.9326-3.0557 1.2578-.7793 2.6523-1.169 4.1836-1.169 1.5586 0 2.9463.376 4.1631 1.128 1.2304.752 2.208 1.7705 2.9326 3.0557.7383 1.2715 1.1074 2.6933 1.1074 4.2656v1.9277c0 .1094-.0547.1641-.1641.1641h-4.7168c-.1093 0-.164-.0547-.164-.1641v-1.9277c0-.9297-.3008-1.7295-.9024-2.3994-.6015-.6699-1.3535-1.0049-2.2558-1.0049-.9981 0-1.7637.3418-2.2969 1.0254-.5332.6836-.7998 1.4766-.7998 2.3789v13.1045c0 1.0254.3008 1.8662.9023 2.5225.6016.6425 1.333.9638 2.1944.9638.9023 0 1.6543-.3554 2.2558-1.0664.6016-.7246.9024-1.5312.9024-2.4199v-1.9482c0-.1094.0547-.1641.164-.1641h4.7579c.1093 0 .164.0547.164.1641v1.9482c0 1.5723-.3691 3.0078-1.1074 4.3066-.752 1.2852-1.7432 2.3174-2.9736 3.0967-1.2305.7656-2.6182 1.1485-4.1631 1.1485Zm19.0724 0c-1.49 0-2.864-.3829-4.122-1.1485-1.244-.7656-2.249-1.7842-3.015-3.0556-.7518-1.2852-1.1278-2.6934-1.1278-4.2247l.041-13.3095c0-1.5586.376-2.96 1.1278-4.2041.738-1.2578 1.736-2.2627 2.994-3.0147 1.258-.7656 2.625-1.1484 4.102-1.1484 1.531 0 2.905.376 4.122 1.128 1.23.7519 2.215 1.7636 2.953 3.035.752 1.2579 1.128 2.6593 1.128 4.2042l.041 13.3095c0 1.5313-.369 2.9327-1.107 4.2041-.752 1.2852-1.75 2.3106-2.995 3.0762-1.244.7656-2.625 1.1485-4.142 1.1485Zm0-5.0655c.847 0 1.586-.3418 2.215-1.0254.629-.6972.943-1.4765.943-2.3379l-.041-13.3095c0-.9297-.294-1.7158-.882-2.3584-.588-.6426-1.333-.9639-2.235-.9639-.861 0-1.6.3145-2.215.9434-.615.6289-.923 1.4218-.923 2.3789v13.3095c0 .9161.308 1.709.923 2.379.615.6562 1.354.9843 2.215.9843Zm19.195 5.0655c-1.49 0-2.864-.3829-4.122-1.1485-1.244-.7656-2.249-1.7842-3.015-3.0556-.752-1.2852-1.127-2.6934-1.127-4.2247l.041-13.3095c0-1.5586.375-2.96 1.127-4.2041.739-1.2578 1.737-2.2627 2.995-3.0147 1.257-.7656 2.625-1.1484 4.101-1.1484 1.531 0 2.905.376 4.122 1.128 1.231.7519 2.215 1.7636 2.953 3.035.752 1.2579 1.128 2.6593 1.128 4.2042l.041 13.3095c0 1.5313-.369 2.9327-1.107 4.2041-.752 1.2852-1.75 2.3106-2.994 3.0762-1.244.7656-2.625 1.1485-4.143 1.1485Zm0-5.0655c.848 0 1.586-.3418 2.215-1.0254.629-.6972.943-1.4765.943-2.3379l-.041-13.3095c0-.9297-.294-1.7158-.881-2.3584-.588-.6426-1.334-.9639-2.236-.9639-.861 0-1.599.3145-2.215.9434-.615.6289-.923 1.4218-.923 2.3789v13.3095c0 .9161.308 1.709.923 2.379.616.6562 1.354.9843 2.215.9843ZM151.823 35h-13.576c-.109 0-.164-.0684-.164-.2051l.041-28.8134c0-.1368.068-.2051.205-.2051h4.676c.137 0 .205.0683.205.205l-.041 23.8506h8.654c.137 0 .205.0684.205.2051v4.7578c0 .1367-.068.2051-.205.2051Zm21.554 0h-7.526c-.11 0-.164-.0684-.164-.2051l.082-28.8545c0-.1094.054-.164.164-.164h8.08c1.572 0 3.001.3828 4.286 1.1484 1.258.7656 2.249 1.7842 2.973 3.0557.725 1.2578 1.087 2.625 1.087 4.1015 0 1.2032-.273 2.3242-.82 3.3633-.547 1.0391-1.196 1.8799-1.948 2.5225.806.8066 1.435 1.7431 1.887 2.8095.451 1.0665.676 2.1875.676 3.3633 0 1.627-.389 3.1104-1.169 4.4502-.793 1.3399-1.852 2.4131-3.178 3.2197-1.327.793-2.803 1.1895-4.43 1.1895Zm.636-24.2402h-3.2v6.6035h3.2c.97 0 1.757-.3418 2.358-1.0254.602-.6973.902-1.4492.902-2.2559 0-.8886-.321-1.6611-.963-2.3174-.643-.6699-1.409-1.0048-2.297-1.0048Zm-.636 11.6894h-2.564l-.041 7.4238h2.605c1.012 0 1.88-.3691 2.604-1.1074.725-.7383 1.087-1.6133 1.087-2.625s-.362-1.8799-1.087-2.6045c-.724-.7246-1.592-1.0869-2.604-1.0869ZM198.909 35h-13.576c-.109 0-.164-.0684-.164-.2051l.041-28.8134c0-.1368.068-.2051.205-.2051h4.676c.137 0 .205.0683.205.205l-.041 23.8506h8.654c.137 0 .205.0684.205.2051v4.7578c0 .1367-.068.2051-.205.2051Zm10.726.4102c-1.49 0-2.864-.3829-4.122-1.1485-1.244-.7656-2.249-1.7842-3.015-3.0556-.752-1.2852-1.128-2.6934-1.128-4.2247l.041-13.3095c0-1.5586.376-2.96 1.128-4.2041.738-1.2578 1.736-2.2627 2.994-3.0147 1.258-.7656 2.625-1.1484 4.102-1.1484 1.531 0 2.905.376 4.122 1.128 1.23.7519 2.215 1.7636 2.953 3.035.752 1.2579 1.128 2.6593 1.128 4.2042l.041 13.3095c0 1.5313-.369 2.9327-1.108 4.2041-.751 1.2852-1.75 2.3106-2.994 3.0762-1.244.7656-2.625 1.1485-4.142 1.1485Zm0-5.0655c.847 0 1.586-.3418 2.215-1.0254.629-.6972.943-1.4765.943-2.3379l-.041-13.3095c0-.9297-.294-1.7158-.882-2.3584-.588-.6426-1.333-.9639-2.235-.9639-.862 0-1.6.3145-2.215.9434-.615.6289-.923 1.4218-.923 2.3789v13.3095c0 .9161.308 1.709.923 2.379.615.6562 1.353.9843 2.215.9843Zm19.113 5.0655c-1.518 0-2.885-.376-4.102-1.128-1.23-.7519-2.221-1.7636-2.973-3.0351-.738-1.2715-1.108-2.6934-1.108-4.2657V13.6719c0-1.5313.376-2.9258 1.128-4.1836.739-1.2715 1.73-2.2832 2.974-3.0352 1.244-.7656 2.604-1.1484 4.081-1.1484 1.545 0 2.94.3691 4.184 1.1074 1.244.752 2.228 1.7569 2.953 3.0147.738 1.2578 1.107 2.6728 1.107 4.2451v1.9277c0 .1094-.068.1641-.205.1641h-4.717c-.109 0-.164-.0547-.164-.1641V14c0-1.0664-.301-1.9482-.902-2.6455-.602-.6973-1.354-1.0459-2.256-1.0459-.807 0-1.524.335-2.153 1.0049-.629.6699-.944 1.456-.944 2.3584v13.3095c0 .9161.308 1.709.923 2.379.615.6562 1.34.9843 2.174.9843.902 0 1.654-.3213 2.256-.9638.601-.6563.902-1.4561.902-2.3995v-2.0712h-2.932c-.151 0-.226-.0684-.226-.2051v-4.6963c0-.1367.075-.2051.226-.2051h7.854c.11 0 .164.0684.164.2051v6.9726c0 1.5723-.369 2.9942-1.107 4.2657-.752 1.2715-1.743 2.2832-2.974 3.0351-1.23.752-2.618 1.128-4.163 1.128Z"/><path fill="url(#a)" d="M59.1517 0H10.8491C4.8826 0 0 4.881 0 10.8476v48.3048C0 65.119 4.8818 70 10.8483 70h48.3042C65.119 70 70 65.119 70 59.1524v-48.304C70 4.8818 65.1182 0 59.1517 0ZM47.7892 17.6042c2.7408 0 4.9626 2.8367 4.9626 6.3374 0 3.5007-2.2218 6.3366-4.9626 6.3366-2.7416 0-4.9626-2.8367-4.9626-6.3366s2.2218-6.3374 4.9626-6.3374ZM27.175 23.9424c0 3.4999-2.2218 6.3366-4.9626 6.3366s-4.9626-2.8367-4.9626-6.3366h9.9252Zm29.232 20.9631-.0159.0277c-.2337.4445-.4833.8796-.7432 1.3074-.0428.0713-.088.1411-.1324.2116a24.6452 24.6452 0 0 1-.725 1.0966l-.1252.1807a24.265 24.265 0 0 1-.9056 1.1886c-.0373.0467-.0777.0919-.1157.1378a23.0745 23.0745 0 0 1-.87.9969c-.0626.0673-.1236.1362-.187.2028-.3408.3621-.6894.7147-1.0515 1.0546l-.0507.0452c-.418.3894-.8495.7639-1.294 1.1228a24.248 24.248 0 0 1-2.3905 1.7068 24.3258 24.3258 0 0 1-.2837.1743 24.4027 24.4027 0 0 1-1.1362.6498c-.0523.0277-.103.0578-.1553.0847-.4311.2275-.8716.439-1.3177.6403-.1015.0451-.2037.0879-.3051.1323a23.7665 23.7665 0 0 1-1.1394.4596c-.0943.0356-.187.0729-.2813.107a24.3349 24.3349 0 0 1-1.3954.4548c-.0959.0277-.1933.0523-.29.0792a24.5085 24.5085 0 0 1-1.1949.2995c-.1196.027-.2393.0547-.3597.0793a23.71 23.71 0 0 1-1.4698.2615c-.0698.0103-.1403.0158-.2108.0261-.571.0767-1.1445.133-1.7195.1688-.5102.0317-1.0229.0547-1.5411.0547a24.5261 24.5261 0 0 1-1.9453-.084 24.3729 24.3729 0 0 1-1.3153-.1395c-.0705-.0095-.141-.0158-.2108-.0261a24.1435 24.1435 0 0 1-1.4698-.2615c-.1204-.0246-.2401-.0523-.3597-.0793a23.8195 23.8195 0 0 1-1.1949-.3003c-.0967-.0261-.1941-.0507-.29-.0792a24.0735 24.0735 0 0 1-1.3962-.454c-.0935-.0341-.1862-.0714-.2797-.1062a24.031 24.031 0 0 1-1.141-.4604c-.1014-.0444-.2028-.0872-.3035-.1323a24.048 24.048 0 0 1-1.3185-.6403c-.0523-.0269-.103-.057-.1553-.0847a24.8504 24.8504 0 0 1-1.137-.6498 24.2106 24.2106 0 0 1-2.9159-2.08c-.3598-.3003-.7131-.6069-1.0539-.9263l-.0475-.042a24.4703 24.4703 0 0 1-1.0523-1.0554c-.0634-.0666-.1244-.1347-.187-.2028a24.8781 24.8781 0 0 1-.8708-.9976c-.038-.046-.0776-.0904-.1149-.1371a24.265 24.265 0 0 1-.9056-1.1886c-.0428-.0594-.0825-.1204-.1244-.1799a24.0263 24.0263 0 0 1-.7274-1.099l-.13-.2084a23.58 23.58 0 0 1-.7448-1.309l-.0159-.0277.0016-.0008a24.0217 24.0217 0 0 1-2.713-9.7541s22.9199 8.8936 48.2376 0a24.0268 24.0268 0 0 1-2.7122 9.7549Z"/><defs><linearGradient id="a" x1="-2.4398" x2="70.1342" y1="1.5066" y2="72.3373" gradientUnits="userSpaceOnUse"><stop stop-color="#0090E9"/><stop offset="1" stop-color="#753FC1"/></linearGradient></defs></svg>